<?xml version="1.0" standalone="no"?>
<!DOCTYPE svg PUBLIC "-//W3C//DTD SVG 20010904//EN"
 "http://www.w3.org/TR/2001/REC-SVG-20010904/DTD/svg10.dtd">
<svg version="1.0" xmlns="http://www.w3.org/2000/svg"
 width="229.000000pt" height="229.000000pt" viewBox="0 0 229.000000 229.000000"
 preserveAspectRatio="xMidYMid meet">
<metadata>
Created by potrace 1.11, written by Peter Selinger 2001-2013
</metadata>
<g transform="translate(0.000000,229.000000) scale(0.100000,-0.100000)"
fill="#000000" stroke="none">
<path d="M305 2266 c-70 -22 -121 -54 -173 -105 -41 -42 -84 -107 -87 -131 0
-3 -4 -10 -8 -16 -6 -11 -4 -1715 3 -1741 2 -7 7 -10 11 -8 5 4 13 -13 18 -40
1 -3 8 -13 17 -22 8 -10 27 -32 42 -49 15 -16 35 -33 44 -37 10 -3 18 -13 18
-22 0 -8 5 -15 11 -15 5 0 7 6 3 12 -4 7 2 5 14 -6 12 -10 19 -23 15 -29 -3
-6 -1 -7 6 -3 6 4 9 12 5 17 -3 6 3 5 14 -2 12 -7 18 -17 16 -21 -3 -4 0 -8 5
-8 6 0 11 6 11 13 0 9 3 8 9 -2 5 -7 14 -10 20 -7 6 4 11 2 11 -5 0 -9 3 -9
14 0 11 9 16 9 22 0 5 -8 3 -10 -7 -4 -8 5 -11 4 -6 0 10 -12 48 -14 41 -3 -6
10 39 3 57 -8 8 -4 9 -3 5 4 -11 18 4 14 22 -6 10 -10 14 -13 9 -6 -4 7 -1 14
8 18 8 3 15 0 15 -6 0 -7 6 -6 16 3 13 10 17 10 24 0 5 -9 10 -10 14 -2 11 17
22 13 33 -11 8 -19 10 -20 16 -4 5 12 3 15 -6 10 -9 -5 -8 -3 1 7 11 12 14 12
21 0 6 -9 11 -10 15 -2 11 17 22 13 35 -12 6 -12 10 -14 7 -5 -3 9 2 19 10 22
8 3 14 1 14 -5 0 -6 5 -7 13 -2 26 16 65 11 76 -11 7 -11 10 -13 7 -4 -3 9 2
19 10 22 8 3 14 2 14 -3 0 -4 7 -8 15 -8 8 0 12 4 9 9 -3 4 0 8 5 8 6 0 11 -5
11 -11 0 -8 5 -7 15 1 17 14 17 14 32 -14 9 -16 11 -17 16 -2 5 12 3 15 -6 10
-7 -4 -7 -1 2 7 10 11 15 11 18 2 3 -7 9 -13 14 -13 6 0 8 4 5 8 -7 11 46 8
64 -3 9 -5 11 -4 6 4 -8 12 33 9 55 -5 8 -4 9 -3 5 4 -4 7 -3 12 2 12 5 0 14
-10 21 -23 6 -12 10 -14 7 -5 -3 9 2 19 10 22 8 3 14 2 14 -3 0 -4 7 -8 15 -8
8 0 12 4 9 9 -3 4 0 8 5 8 6 0 11 -5 11 -11 0 -8 5 -7 15 1 17 14 17 14 32
-14 9 -16 11 -17 16 -2 5 12 3 15 -6 10 -9 -5 -8 -3 1 7 11 12 14 12 21 0 6
-9 11 -10 15 -2 11 17 22 13 35 -12 6 -12 10 -14 7 -5 -3 9 2 19 10 22 8 3 14
1 14 -5 0 -6 5 -7 13 -2 26 16 65 11 76 -11 7 -11 10 -13 7 -4 -3 9 2 19 10
22 8 3 14 2 14 -3 0 -4 7 -8 15 -8 8 0 12 4 9 9 -3 4 0 8 5 8 6 0 11 -5 11
-11 0 -8 5 -7 15 1 17 14 17 14 32 -14 9 -16 11 -17 16 -2 5 12 3 15 -6 10 -7
-4 -7 -1 2 7 10 11 15 11 18 2 3 -7 9 -13 14 -13 6 0 8 4 5 8 -7 11 46 8 64
-3 9 -5 11 -4 6 4 -8 12 33 9 55 -5 8 -4 9 -3 5 4 -4 7 -3 12 2 12 5 0 14 -10
21 -23 6 -12 10 -14 7 -5 -3 9 2 19 10 22 8 3 14 2 14 -3 0 -4 7 -8 15 -8 8 0
12 4 9 9 -3 4 0 8 5 8 6 0 11 -5 11 -11 0 -8 6 -7 17 2 13 11 17 11 20 2 3 -7
9 -13 14 -13 6 0 8 4 5 8 -3 5 1 9 9 9 8 0 12 -4 9 -8 -2 -5 8 -2 23 6 18 10
31 11 39 4 9 -7 15 -5 23 8 8 14 12 15 19 5 7 -10 11 -8 15 8 5 18 11 22 30
18 20 -4 24 -1 19 11 -3 9 -2 13 2 9 4 -3 16 2 27 13 11 11 25 17 31 13 6 -4
8 -3 5 3 -8 13 27 46 38 36 4 -5 5 -2 1 5 -9 14 21 55 34 47 5 -3 6 5 2 17 -4
16 -2 20 10 16 11 -5 14 0 10 19 -3 16 -1 24 5 20 5 -3 11 -1 13 6 1 7 5 379
7 827 4 749 3 820 -13 880 -10 36 -24 71 -31 78 -7 7 -13 17 -13 22 0 20 -101
108 -160 140 l-65 35 -815 2 c-641 2 -824 -1 -855 -11z"/>
<path d="M2185 190 c-3 -6 1 -7 9 -4 18 7 21 14 7 14 -6 0 -13 -4 -16 -10z"/>
<path d="M410 16 c0 -2 7 -7 16 -10 8 -3 12 -2 9 4 -6 10 -25 14 -25 6z"/>
<path d="M1050 16 c0 -2 7 -7 16 -10 8 -3 12 -2 9 4 -6 10 -25 14 -25 6z"/>
<path d="M1690 16 c0 -2 7 -7 16 -10 8 -3 12 -2 9 4 -6 10 -25 14 -25 6z"/>
</g>
</svg>
